<svg width="16" height="16" viewBox="0 0 16 16" fill="none" xmlns="http://www.w3.org/2000/svg">
  <path fill-rule="evenodd" clip-rule="evenodd" d="M14.3033 3.6112C14.3666 3.70734 14.3948 3.82239 14.3832 3.93693C14.3715 4.05147 14.3207 4.15847 14.2393 4.23987L8.1106 10.3679C8.0479 10.4305 7.96967 10.4754 7.88393 10.4979L5.33126 11.1645C5.24688 11.1865 5.15821 11.1861 5.07406 11.1632C4.9899 11.1404 4.91319 11.0959 4.85152 11.0343C4.78986 10.9726 4.7454 10.8959 4.72255 10.8117C4.6997 10.7276 4.69926 10.6389 4.72126 10.5545L5.38793 8.00254C5.40739 7.92593 5.4441 7.85479 5.49526 7.79454L11.6466 1.6472C11.7403 1.55357 11.8674 1.50098 11.9999 1.50098C12.1324 1.50098 12.2595 1.55357 12.3533 1.6472L14.2393 3.53254C14.2632 3.55654 14.2846 3.5829 14.3033 3.6112ZM13.1786 3.88587L11.9999 2.70787L6.32126 8.38654L5.9046 9.98187L7.49993 9.5652L13.1786 3.88587Z" fill="#00C48C"/>
  <path d="M13.0937 11.4396C13.2759 9.88223 13.3341 8.31285 13.2677 6.74627C13.2663 6.70936 13.2724 6.67255 13.2859 6.63814C13.2993 6.60372 13.3197 6.57245 13.3457 6.54627L14.0017 5.89027C14.0196 5.87224 14.0424 5.85977 14.0672 5.85436C14.0921 5.84895 14.1179 5.85083 14.1417 5.85977C14.1655 5.86872 14.1862 5.88434 14.2014 5.90477C14.2165 5.9252 14.2254 5.94956 14.227 5.97493C14.3505 7.83576 14.3037 9.70397 14.087 11.5563C13.9297 12.9043 12.847 13.9609 11.505 14.1109C9.17528 14.3689 6.82415 14.3689 4.49438 14.1109C3.15305 13.9609 2.06971 12.9043 1.91238 11.5563C1.63598 9.19321 1.63598 6.80599 1.91238 4.44293C2.06971 3.09493 3.15238 2.03827 4.49438 1.88827C6.26262 1.69219 8.0442 1.64469 9.82038 1.74627C9.8458 1.74809 9.87016 1.75716 9.89058 1.77241C9.91101 1.78765 9.92663 1.80843 9.93561 1.83228C9.94459 1.85613 9.94655 1.88205 9.94125 1.90698C9.93595 1.93191 9.92362 1.9548 9.90571 1.97293L9.24371 2.63427C9.21778 2.6601 9.18684 2.68035 9.15279 2.69376C9.11873 2.70718 9.08229 2.71347 9.04571 2.71227C7.56355 2.66188 6.07968 2.7187 4.60571 2.88227C4.17501 2.92994 3.77295 3.12141 3.46448 3.42577C3.15602 3.73012 2.95916 4.12957 2.90571 4.5596C2.63841 6.84514 2.63841 9.15405 2.90571 11.4396C2.95916 11.8696 3.15602 12.2691 3.46448 12.5734C3.77295 12.8778 4.17501 13.0693 4.60571 13.1169C6.84238 13.3669 9.15704 13.3669 11.3944 13.1169C11.8251 13.0693 12.2271 12.8778 12.5356 12.5734C12.8441 12.2691 13.0403 11.8696 13.0937 11.4396Z" fill="#00C48C"/>
</svg>