<svg width="28" height="28" viewBox="0 0 28 28" fill="none" xmlns="http://www.w3.org/2000/svg">
<g id="ep:menu">
<path id="Vector" d="M4.375 12.25C4.14294 12.25 3.92038 12.1578 3.75628 11.9937C3.59219 11.8296 3.5 11.6071 3.5 11.375V4.37674C3.5 4.14468 3.59219 3.92212 3.75628 3.75802C3.92038 3.59393 4.14294 3.50174 4.375 3.50174H11.375C11.6071 3.50174 11.8296 3.59393 11.9937 3.75802C12.1578 3.92212 12.25 4.14468 12.25 4.37674V11.375C12.25 11.6071 12.1578 11.8296 11.9937 11.9937C11.8296 12.1578 11.6071 12.25 11.375 12.25H4.375ZM16.625 12.25C16.3929 12.25 16.1704 12.1578 16.0063 11.9937C15.8422 11.8296 15.75 11.6071 15.75 11.375V4.37674C15.75 4.14468 15.8422 3.92212 16.0063 3.75802C16.1704 3.59393 16.3929 3.50174 16.625 3.50174H23.6232C23.8553 3.50174 24.0779 3.59393 24.242 3.75802C24.4061 3.92212 24.4982 4.14468 24.4982 4.37674V11.375C24.4982 11.6071 24.4061 11.8296 24.242 11.9937C24.0779 12.1578 23.8553 12.25 23.6232 12.25H16.625ZM4.375 24.5C4.14294 24.5 3.92038 24.4078 3.75628 24.2437C3.59219 24.0796 3.5 23.8571 3.5 23.625V16.625C3.5 16.3929 3.59219 16.1704 3.75628 16.0063C3.92038 15.8422 4.14294 15.75 4.375 15.75H11.375C11.6071 15.75 11.8296 15.8422 11.9937 16.0063C12.1578 16.1704 12.25 16.3929 12.25 16.625V23.625C12.25 23.8571 12.1578 24.0796 11.9937 24.2437C11.8296 24.4078 11.6071 24.5 11.375 24.5H4.375ZM16.625 24.5C16.3929 24.5 16.1704 24.4078 16.0063 24.2437C15.8422 24.0796 15.75 23.8571 15.75 23.625V16.625C15.75 16.3929 15.8422 16.1704 16.0063 16.0063C16.1704 15.8422 16.3929 15.75 16.625 15.75H23.6232C23.8553 15.75 24.0779 15.8422 24.242 16.0063C24.4061 16.1704 24.4982 16.3929 24.4982 16.625V23.625C24.4982 23.8571 24.4061 24.0796 24.242 24.2437C24.0779 24.4078 23.8553 24.5 23.6232 24.5H16.625Z" fill="#4D4959"/>
</g>
</svg>
