<svg width="16" height="16" viewBox="0 0 16 16" fill="none" xmlns="http://www.w3.org/2000/svg">
<g id="Icons/24px/Search">
<g id="zoom split">
<path id="Combined Shape" d="M15.5448 14.7052C15.7767 14.937 15.7767 15.313 15.5448 15.5448C15.313 15.7767 14.937 15.7767 14.7052 15.5448L11.8552 12.6948C11.6233 12.463 11.6233 12.087 11.8552 11.8552C12.087 11.6233 12.463 11.6233 12.6948 11.8552L15.5448 14.7052ZM6.575 12.8688C3.09906 12.8688 0.28125 10.0509 0.28125 6.575C0.28125 3.09906 3.09906 0.28125 6.575 0.28125C10.0509 0.28125 12.8688 3.09906 12.8688 6.575C12.8688 10.0509 10.0509 12.8688 6.575 12.8688ZM6.575 11.6812C9.3951 11.6812 11.6812 9.3951 11.6812 6.575C11.6812 3.7549 9.3951 1.46875 6.575 1.46875C3.7549 1.46875 1.46875 3.7549 1.46875 6.575C1.46875 9.3951 3.7549 11.6812 6.575 11.6812ZM3.64583 6.1C3.64583 6.31861 3.46861 6.49583 3.25 6.49583C3.03139 6.49583 2.85417 6.31861 2.85417 6.1C2.85417 4.30738 4.30738 2.85417 6.1 2.85417C6.31861 2.85417 6.49583 3.03139 6.49583 3.25C6.49583 3.46861 6.31861 3.64583 6.1 3.64583C4.7446 3.64583 3.64583 4.7446 3.64583 6.1Z" fill="#463D61"/>
</g>
</g>
</svg>
